:FULLY-SPECIFIED
:FORCE-ALL-JOINTS-BE-3DOF
:DEGREES
883
root 3.85195 16.5305 30.5312 -10.8246 23.6768 359.35
lfemur -15.8095 19.9983 -19.0116
ltibia 40.4913 0 0
lfoot -12.9326 0.0690648 0
ltoes -1.37978 0 0
rfemur -80.7132 -24.4467 36.5168
rtibia 101.126 0 0
rfoot 19.264 26.205 0
rtoes -8.14353 0 0
lowerback 15.0059 -4.01209 -6.64789
upperback 4.97444 -6.28636 -2.38034
thorax -2.64296 -3.11384 2.26165
lowerneck -7.71871 -3.24517 1.71638
upperneck 4.65939 -4.84264 4.94114
head 2.93726 -2.18998 1.06474
lclavicle -3.12092e-14 -4.77083e-15 0
lhumerus -33.0312 -40.5423 88.3441
lradius 60.5977 0 0
lwrist 19.6497 0 0
lhand 25.8347 11.8689 0
lfingers 7.12502 0 0
lthumb 49.9264 33.1302 0
rclavicle -3.12092e-14 -4.77083e-15 0
rhumerus -49.2556 -29.6742 -46.9493
rradius 72.2992 0 0
rwrist -23.3678 0 0
rhand -47.7649 -54.4874 0
rfingers 7.12502 0 0
rthumb -20.4424 -803.431 0
884
root 3.83284 16.533 30.6055 -10.1814 24.3412 359.17
lfemur -16.6542 21.1391 -18.9654
ltibia 40.8052 0 0
lfoot -13.1714 0.0662467 0
ltoes -1.23715 0 0
rfemur -77.812 -25.2482 34.3661
rtibia 102.714 0 0
rfoot 19.1596 24.6653 0
rtoes -7.55688 0 0
lowerback 14.2959 -4.13938 -6.64318
upperback 4.66934 -6.41374 -2.26293
thorax -2.55378 -3.1772 2.34626
lowerneck -7.71502 -3.46605 1.54199
upperneck 4.73599 -5.12856 4.99639
head 2.97802 -2.33137 1.09772
lclavicle -3.56464e-14 -4.54365e-15 0
lhumerus -34.1653 -41.1177 89.8435
lradius 60.7709 0 0
lwrist 18.7826 0 0
lhand 26.0455 11.858 0
lfingers 7.12502 0 0
lthumb 50.1189 33.0145 0
rclavicle -3.56464e-14 -4.54365e-15 0
rhumerus -49.0928 -28.4879 -49.08
rradius 74.8829 0 0
rwrist -23.1767 0 0
rhand -47.2279 -55.1411 0
rfingers 7.12502 0 0
rthumb -19.9259 -804.134 0
885
root 3.81373 16.5355 30.6798 -9.53828 25.0056 358.991
lfemur -17.499 22.2799 -18.9193
ltibia 41.1191 0 0
lfoot -13.4101 0.0634285 0
ltoes -1.09452 0 0
rfemur -74.9108 -26.0496 32.2155
rtibia 104.302 0 0
rfoot 19.0552 23.1256 0
rtoes -6.97022 0 0
lowerback 13.5858 -4.26666 -6.63847
upperback 4.36424 -6.54111 -2.14551
thorax -2.4646 -3.24057 2.43087
lowerneck -7.71133 -3.68693 1.3676
upperneck 4.81258 -5.41448 5.05165
head 3.01879 -2.47276 1.13069
lclavicle -4.00835e-14 -4.31646e-15 0
lhumerus -35.2993 -41.6932 91.3429
lradius 60.944 0 0
lwrist 17.9154 0 0
lhand 26.2564 11.8471 0
lfingers 7.12502 0 0
lthumb 50.3113 32.8987 0
rclavicle -4.00835e-14 -4.31646e-15 0
rhumerus -48.93 -27.3016 -51.2106
rradius 77.4667 0 0
rwrist -22.9856 0 0
rhand -46.6909 -55.7948 0
rfingers 7.12502 0 0
rthumb -19.4094 -804.838 0
886
root 3.79462 16.538 30.7541 -8.89512 25.67 358.811
lfemur -18.3437 23.4207 -18.8731
ltibia 41.433 0 0
lfoot -13.6489 0.0606104 0
ltoes -0.951891 0 0
rfemur -72.0096 -26.8511 30.0648
rtibia 105.89 0 0
rfoot 18.9508 21.5859 0
rtoes -6.38357 0 0
lowerback 12.8758 -4.39395 -6.63376
upperback 4.05914 -6.66849 -2.0281
thorax -2.37542 -3.30393 2.51548
lowerneck -7.70764 -3.90781 1.19321
upperneck 4.88918 -5.7004 5.1069
head 3.05955 -2.61415 1.16367
lclavicle -4.45207e-14 -4.08928e-15 0
lhumerus -36.4334 -42.2686 92.8423
lradius 61.1172 0 0
lwrist 17.0483 0 0
lhand 26.4672 11.8362 0
lfingers 7.12502 0 0
lthumb 50.5038 32.783 0
rclavicle -4.45207e-14 -4.08928e-15 0
rhumerus -48.7672 -26.1153 -53.3413
rradius 80.0504 0 0
rwrist -22.7945 0 0
rhand -46.1539 -56.4485 0
rfingers 7.12502 0 0
rthumb -18.8929 -805.541 0
887
root 3.77551 16.5404 30.8285 -8.25196 26.3345 358.632
lfemur -19.1884 24.5616 -18.8269
ltibia 41.747 0 0
lfoot -13.8877 0.0577923 0
ltoes -0.809262 0 0
rfemur -69.1085 -27.6526 27.9141
rtibia 107.477 0 0
rfoot 18.8463 20.0463 0
rtoes -5.79692 0 0
lowerback 12.1658 -4.52124 -6.62904
upperback 3.75403 -6.79587 -1.91068
thorax -2.28624 -3.3673 2.60009
lowerneck -7.70396 -4.1287 1.01882
upperneck 4.96578 -5.98632 5.16216
head 3.10031 -2.75554 1.19665
lclavicle -4.89578e-14 -3.8621e-15 0
lhumerus -37.5675 -42.844 94.3418
lradius 61.2904 0 0
lwrist 16.1812 0 0
lhand 26.6781 11.8254 0
lfingers 7.12502 0 0
lthumb 50.6962 32.6673 0
rclavicle -4.89578e-14 -3.8621e-15 0
rhumerus -48.6045 -24.929 -55.4719
rradius 82.6342 0 0
rwrist -22.6034 0 0
rhand -45.617 -57.1022 0
rfingers 7.12502 0 0
rthumb -18.3765 -806.244 0
888
root 3.7564 16.5429 30.9028 -7.6088 26.9989 358.452
lfemur -20.0331 25.7024 -18.7807
ltibia 42.0609 0 0
lfoot -14.1265 0.0549742 0
ltoes -0.666632 0 0
rfemur -66.2073 -28.4541 25.7634
rtibia 109.065 0 0
rfoot 18.7419 18.5066 0
rtoes -5.21027 0 0
lowerback 11.4558 -4.64853 -6.62433
upperback 3.44893 -6.92325 -1.79327
thorax -2.19706 -3.43066 2.6847
lowerneck -7.70027 -4.34958 0.844431
upperneck 5.04238 -6.27224 5.21741
head 3.14107 -2.89693 1.22963
lclavicle -5.3395e-14 -3.63492e-15 0
lhumerus -38.7016 -43.4194 95.8412
lradius 61.4636 0 0
lwrist 15.3141 0 0
lhand 26.8889 11.8145 0
lfingers 7.12502 0 0
lthumb 50.8887 32.5516 0
rclavicle -5.3395e-14 -3.63492e-15 0
rhumerus -48.4417 -23.7427 -57.6026
rradius 85.2179 0 0
rwrist -22.4123 0 0
rhand -45.08 -57.7559 0
rfingers 7.12502 0 0
rthumb -17.86 -806.947 0
889
root 3.73729 16.5454 30.9771 -6.96564 27.6633 358.273
lfemur -20.8779 26.8432 -18.7346
ltibia 42.3748 0 0
lfoot -14.3652 0.052156 0
ltoes -0.524003 0 0
rfemur -63.3061 -29.2555 23.6128
rtibia 110.653 0 0
rfoot 18.6375 16.9669 0
rtoes -4.62361 0 0
lowerback 10.7457 -4.77581 -6.61962
upperback 3.14383 -7.05062 -1.67585
thorax -2.10788 -3.49403 2.76931
lowerneck -7.69658 -4.57046 0.670042
upperneck 5.11897 -6.55816 5.27267
head 3.18184 -3.03832 1.2626
lclavicle -5.78321e-14 -3.40773e-15 0
lhumerus -39.8356 -43.9949 97.3406
lradius 61.6367 0 0
lwrist 14.4469 0 0
lhand 27.0998 11.8036 0
lfingers 7.12502 0 0
lthumb 51.0811 32.4358 0
rclavicle -5.78321e-14 -3.40773e-15 0
rhumerus -48.2789 -22.5564 -59.7332
rradius 87.8017 0 0
rwrist -22.2212 0 0
rhand -44.543 -58.4096 0
rfingers 7.12502 0 0
rthumb -17.3435 -807.651 0
890
root 3.71818 16.5479 31.0514 -6.32248 28.3277 358.093
lfemur -21.7226 27.984 -18.6884
ltibia 42.6887 0 0
lfoot -14.604 0.0493379 0
ltoes -0.381373 0 0
rfemur -60.4049 -30.057 21.4621
rtibia 112.241 0 0
rfoot 18.5331 15.4272 0
rtoes -4.03696 0 0
lowerback 10.0357 -4.9031 -6.61491
upperback 2.83873 -7.178 -1.55844
thorax -2.0187 -3.55739 2.85392
lowerneck -7.69289 -4.79134 0.495652
upperneck 5.19557 -6.84408 5.32792
head 3.2226 -3.17971 1.29558
lclavicle -6.22693e-14 -3.18055e-15 0
lhumerus -40.9697 -44.5703 98.84
lradius 61.8099 0 0
lwrist 13.5798 0 0
lhand 27.3106 11.7927 0
lfingers 7.12502 0 0
lthumb 51.2736 32.3201 0
rclavicle -6.22693e-14 -3.18055e-15 0
rhumerus -48.1161 -21.3701 -61.8639
rradius 90.3854 0 0
rwrist -22.0301 0 0
rhand -44.006 -59.0633 0
rfingers 7.12502 0 0
rthumb -16.827 -808.354 0
